<?xml version="1.0" encoding="UTF-8"?><svg id="Capa_1" xmlns="http://www.w3.org/2000/svg" viewBox="0 0 48 48"><path d="m13.34,33.47c1.3,0,2.37,1.07,2.37,2.37,0,2.6-2.13,4.74-4.74,4.74-.4,0-.78-.05-1.18-.12.73-1.3,1.18-2.87,1.18-4.62,0-1.3,1.07-2.37,2.37-2.37ZM40.98,2.69c-.62,0-1.21.24-1.68.69l-21.22,21.22,6.51,6.51,21.22-21.22c.92-.92.92-2.42,0-3.34l-3.17-3.17c-.47-.47-1.07-.69-1.66-.69ZM13.34,28.74c-3.93,0-7.1,3.17-7.1,7.1,0,3.1-2.75,4.74-4.74,4.74,2.18,2.89,5.9,4.74,9.47,4.74,5.23,0,9.47-4.24,9.47-9.47,0-3.93-3.17-7.1-7.1-7.1Z"/></svg>