<?xml version="1.0" encoding="UTF-8"?><svg id="Capa_1" xmlns="http://www.w3.org/2000/svg" viewBox="0 0 48 48"><path d="m24,12.75c7.75,0,14.67,4.36,18.04,11.25-3.37,6.89-10.27,11.25-18.04,11.25s-14.67-4.36-18.04-11.25c3.37-6.89,10.29-11.25,18.04-11.25Zm0-4.09c-10.23,0-18.96,6.36-22.5,15.34,3.54,8.98,12.27,15.34,22.5,15.34s18.96-6.36,22.5-15.34c-3.54-8.98-12.27-15.34-22.5-15.34Zm0,10.23c2.82,0,5.11,2.29,5.11,5.11s-2.29,5.11-5.11,5.11-5.11-2.29-5.11-5.11,2.29-5.11,5.11-5.11Zm0-4.09c-5.07,0-9.2,4.13-9.2,9.2s4.13,9.2,9.2,9.2,9.2-4.13,9.2-9.2-4.13-9.2-9.2-9.2Z"/></svg>