<?xml version="1.0" encoding="UTF-8"?><svg id="Capa_1" xmlns="http://www.w3.org/2000/svg" viewBox="0 0 48 48"><path d="m24,1.5C11.58,1.5,1.5,11.58,1.5,24s10.08,22.5,22.5,22.5,22.5-10.08,22.5-22.5S36.42,1.5,24,1.5ZM6,24c0-1.37.18-2.72.47-4l10.75,10.75v2.25c0,2.48,2.03,4.5,4.5,4.5v4.34c-8.84-1.12-15.73-8.69-15.73-17.84Zm31.25,12.15c-.59-1.82-2.25-3.15-4.27-3.15h-2.25v-6.75c0-1.24-1.01-2.25-2.25-2.25h-13.5v-4.5h4.5c1.24,0,2.25-1.01,2.25-2.25v-4.5h4.5c2.48,0,4.5-2.03,4.5-4.5v-.92c6.59,2.65,11.27,9.13,11.27,16.67,0,4.68-1.82,8.95-4.75,12.15Z"/></svg>