<?xml version="1.0" encoding="UTF-8"?><svg id="Capa_1" xmlns="http://www.w3.org/2000/svg" viewBox="0 0 48 48"><path d="m40.73,26.2c.09-.7.14-1.43.14-2.2s-.05-1.5-.16-2.2l4.76-3.7c.42-.33.54-.96.28-1.43l-4.5-7.78c-.28-.52-.87-.68-1.38-.52l-5.6,2.25c-1.17-.89-2.41-1.64-3.8-2.2l-.84-5.95c-.09-.56-.56-.96-1.13-.96h-9c-.56,0-1.01.4-1.1.96l-.84,5.95c-1.38.56-2.65,1.34-3.8,2.2l-5.6-2.25c-.52-.19-1.1,0-1.38.52l-4.48,7.78c-.28.49-.19,1.1.28,1.43l4.76,3.7c-.12.7-.21,1.48-.21,2.2s.05,1.5.16,2.2l-4.76,3.7c-.42.33-.54.96-.28,1.43l4.5,7.78c.28.52.87.68,1.38.52l5.6-2.25c1.17.89,2.41,1.64,3.8,2.2l.84,5.95c.12.56.56.96,1.13.96h9c.56,0,1.03-.4,1.1-.96l.84-5.95c1.38-.56,2.65-1.31,3.8-2.2l5.6,2.25c.52.19,1.1,0,1.38-.52l4.5-7.78c.28-.52.16-1.1-.28-1.43l-4.71-3.7Zm-16.73,6.23c-4.64,0-8.44-3.8-8.44-8.44s3.8-8.44,8.44-8.44,8.44,3.8,8.44,8.44-3.8,8.44-8.44,8.44Z"/></svg>