<?xml version="1.0" encoding="UTF-8"?><svg id="Capa_1" xmlns="http://www.w3.org/2000/svg" viewBox="0 0 48 48"><path d="m24,1.5C11.58,1.5,1.5,11.58,1.5,24s10.08,22.5,22.5,22.5,22.5-10.08,22.5-22.5S36.42,1.5,24,1.5Zm16.78,16.02l-6.25,2.59c-1.15-3.06-3.56-5.49-6.64-6.61l2.59-6.25c4.72,1.8,8.48,5.56,10.3,10.28Zm-16.78,13.23c-3.73,0-6.75-3.01-6.75-6.75s3.02-6.75,6.75-6.75,6.75,3.02,6.75,6.75-3.02,6.75-6.75,6.75Zm-6.46-23.53l2.63,6.26c-3.1,1.13-5.56,3.58-6.7,6.68l-6.26-2.61c1.82-4.75,5.58-8.5,10.33-10.33ZM7.21,30.46l6.26-2.59c1.15,3.1,3.58,5.53,6.68,6.66l-2.63,6.26c-4.72-1.82-8.48-5.58-10.31-10.33Zm23.27,10.33l-2.59-6.26c3.08-1.15,5.51-3.58,6.64-6.68l6.25,2.63c-1.82,4.72-5.58,8.48-10.3,10.31Z"/></svg>